<svg version="1.1" viewBox="0.0 0.0 256.0 256.0" fill="none" stroke="none" stroke-linecap="square" stroke-miterlimit="10" xmlns:xlink="http://www.w3.org/1999/xlink" xmlns="http://www.w3.org/2000/svg">
<clipPath id="g289ae2952e5_0_0.0"><path d="m0 0l256.0 0l0 256.0l-256.0 0l0 -256.0z" clip-rule="nonzero"/></clipPath>
<g clip-path="url(#g289ae2952e5_0_0.0)">
    <path fill="#ffffff" d="m0 0l256.0 0l0 256.0l-256.0 0z" fill-rule="evenodd"/>
    <path fill="#000000" fill-opacity="0.0" d="m0 -1.3123359E-6l256.0 0l0 256.0l-256.0 0z" fill-rule="evenodd"/>
    <path fill="#4F46E5" d="m188.48032 157.07812l25.265625 6.375q-7.953125 31.125 -28.59375 47.46875q-20.625 16.328125 -50.453125 16.328125q-30.859367 0 -50.187492 -12.5625q-19.328125 -12.5625 -29.421875 -36.390625q-10.09375 -23.828125 -10.09375 -51.171875q0 -29.8125 11.390625 -52.015625q11.390625 -22.203125 32.421875 -33.71875q21.03125 -11.531252 46.281242 -11.531252q28.65625 0 48.1875 14.593752q19.53125 14.578125 27.203125 41.015625l-24.859375 5.859375q-6.640625 -20.84375 -19.28125 -30.34375q-12.625 -9.5 -31.765625 -9.5q-21.999992 0 -36.781242 10.546875q-14.78125 10.546875 -20.765625 28.328125q-5.984375 17.765625 -5.984375 36.640625q0 24.34375 7.09375 42.515625q7.09375 18.15625 22.0625 27.140625q14.96875 8.984375 32.421867 8.984375q21.21875 0 35.9375 -12.234375q14.71875 -12.25 19.921875 -36.328125z" fill-rule="nonzero"/>
</g>
</svg>