<svg version="1.1" id="Layer_1" xmlns="http://www.w3.org/2000/svg" xmlns:xlink="http://www.w3.org/1999/xlink" x="0px" y="0px"
	 width="100%" viewBox="0 0 636 165" enable-background="new 0 0 636 165" xml:space="preserve">
<path fill="#FDFEFE" opacity="1.000000" stroke="none" 
	d="
M564.000000,166.000000 
	C376.386932,166.000000 188.773849,166.000000 1.080387,166.000000 
	C1.080387,111.069405 1.080387,56.138645 1.080387,1.103946 
	C212.999969,1.103946 424.999969,1.103946 637.000000,1.107146 
	C637.000000,55.094997 637.000000,109.079651 636.804565,163.470581 
	C636.179016,164.172195 635.748901,164.467514 634.905762,164.792358 
	C632.995239,165.214584 631.497620,165.607285 630.000000,166.000000 
	C610.311890,166.000000 590.623779,166.000000 570.571960,165.611420 
	C567.939087,163.886429 565.657288,162.448608 564.000000,166.000000 
M359.467712,65.043068 
	C359.313019,65.362503 359.158295,65.681938 358.859344,66.928986 
	C358.893555,74.627434 358.927765,82.325890 358.770630,90.846642 
	C358.873810,92.242836 358.976990,93.639023 358.923004,95.945671 
	C358.901215,97.776886 358.815186,99.610001 358.869080,101.438988 
	C359.071289,108.306763 359.996429,115.185715 367.271820,118.093460 
	C375.197205,121.260956 383.177094,121.447899 389.923035,114.801353 
	C390.087219,114.639595 390.517212,114.747665 390.824463,114.743759 
	C391.023956,116.165398 391.223419,117.587029 391.435364,119.097504 
	C394.110352,119.097504 396.383179,119.097504 398.884949,119.097504 
	C398.884949,101.020668 398.884949,83.132797 398.884949,65.090103 
	C397.413635,65.162766 396.258789,65.219795 394.257263,65.069893 
	C391.184814,64.537704 389.709167,65.628906 390.172424,68.920052 
	C390.416504,70.654243 390.438873,72.419662 390.356018,75.063347 
	C390.308960,83.677780 390.455383,92.298981 390.154266,100.904526 
	C389.908661,107.923683 385.146545,112.026123 378.106262,111.906876 
	C371.670166,111.797874 368.248657,108.231888 367.844574,101.049065 
	C367.649445,97.579903 367.649384,94.099777 367.767151,89.944832 
	C367.662445,88.238754 367.557739,86.532677 367.638489,83.939247 
	C367.540283,79.686249 367.442078,75.433243 367.674805,70.368439 
	C367.681366,67.731453 369.097107,64.063568 363.147949,65.089615 
	C362.114655,65.113029 361.081329,65.136436 359.467712,65.043068 
M75.058487,6.882688 
	C52.468956,6.882688 29.879423,6.882688 7.197666,6.882688 
	C7.197666,57.846596 7.197666,108.247635 7.197666,158.784973 
	C58.977600,158.784973 110.532440,158.784973 162.129913,158.784973 
	C162.129913,108.111801 162.129913,57.710751 162.129913,7.173491 
	C145.270538,7.173491 128.660172,7.173491 111.134132,6.926712 
	C104.425285,6.943979 97.716446,6.961246 90.262131,6.874056 
	C89.516815,6.942597 88.771500,7.011138 87.113510,6.911638 
	C83.400917,6.965670 79.688332,7.019701 75.058487,6.882688 
M475.991119,100.499550 
	C475.991119,106.641441 475.991119,112.783325 475.991119,118.981018 
	C479.166504,118.981018 482.027405,118.981018 484.862732,118.981018 
	C484.862732,105.945015 485.152802,93.278664 484.775787,80.632202 
	C484.442383,69.450233 478.420227,64.109169 467.233734,64.057610 
	C460.706177,64.027527 454.728607,65.554375 450.046387,70.371025 
	C441.214081,62.123722 431.425903,61.885197 421.164581,69.562637 
	C420.684937,68.003883 420.216797,66.482605 419.781555,65.068085 
	C417.420624,65.068085 415.322418,65.068085 413.121857,65.068085 
	C413.121857,83.223755 413.121857,101.122055 413.121857,118.902588 
	C416.158081,118.902588 418.871674,118.902588 421.823486,118.902588 
	C421.823486,107.181335 421.772705,95.874290 421.840424,84.567955 
	C421.889648,76.351097 425.688110,72.475739 433.604340,72.321884 
	C441.203491,72.174194 443.947052,75.156761 444.273376,83.964294 
	C444.328827,85.461243 444.282562,86.961967 444.282562,88.460953 
	C444.282715,98.580040 444.282654,108.699127 444.282654,119.088768 
	C447.450867,119.088768 450.183563,119.088768 453.352356,119.088768 
	C453.352356,110.596199 453.268280,102.295151 453.386078,93.996964 
	C453.449554,89.526779 453.408844,84.977707 454.221313,80.614349 
	C455.339020,74.611702 460.112915,72.041862 467.241608,72.826515 
	C472.716736,73.429161 475.685699,76.577103 475.897125,82.509354 
	C476.098785,88.166908 475.972900,93.836143 475.991119,100.499550 
M208.600082,47.629719 
	C203.296387,47.471642 197.931229,46.730045 192.702164,47.280663 
	C182.752090,48.328388 177.491806,53.405304 177.050934,63.411366 
	C176.444077,77.184845 176.555710,91.017647 177.039780,104.801140 
	C177.330780,113.086594 182.229965,117.904472 190.431458,118.975029 
	C195.340683,119.615852 200.416229,119.840218 205.335495,119.380074 
	C218.337982,118.163841 223.736923,110.456131 221.271866,97.481354 
	C218.663818,97.481354 216.078735,97.481354 213.332626,97.481354 
	C213.196487,99.606041 213.574738,101.646065 212.853714,103.163879 
	C211.660156,105.676453 210.038498,109.526657 208.101578,109.850693 
	C202.699646,110.754410 196.940994,110.740410 191.538330,109.822456 
	C189.402100,109.459480 186.340256,105.807137 186.253418,103.554115 
	C185.735336,90.111336 185.654312,76.629684 186.094162,63.182922 
	C186.268936,57.840282 189.672180,55.558548 196.372009,55.250214 
	C202.212112,54.981445 208.658325,53.844040 212.152557,60.670986 
	C212.591934,61.529457 212.697098,62.575600 212.868713,63.550350 
	C213.090271,64.808861 213.222839,66.083038 213.402100,67.412689 
	C216.302994,67.412689 218.884781,67.412689 221.435760,67.412689 
	C222.356125,56.394993 218.656067,50.467278 208.600082,47.629719 
M506.908600,107.227638 
	C506.413818,103.552277 505.919037,99.876923 505.356445,95.697983 
	C516.395874,95.697983 526.472595,95.697983 537.420288,95.697983 
	C537.003845,89.028145 537.513367,82.565216 535.906067,76.680481 
	C534.865417,72.870308 531.372925,68.690353 527.843323,66.823456 
	C521.215210,63.317680 513.741577,63.572285 506.587738,66.370781 
	C501.927124,68.193970 498.317749,71.494797 498.086029,76.450394 
	C497.585052,87.166206 497.408264,97.944351 498.013367,108.645287 
	C498.327454,114.200348 502.709808,118.190781 508.153748,118.808159 
	C514.296265,119.504761 520.736450,119.410049 526.815918,118.342712 
	C533.654663,117.142082 537.153137,110.954964 536.407837,103.632690 
	C533.805664,103.632690 531.184631,103.632690 528.626770,103.632690 
	C525.749939,112.364731 514.533386,114.559128 506.908600,107.227638 
M262.300720,92.511086 
	C262.300720,101.298889 262.300720,110.086693 262.300720,119.086182 
	C265.421753,119.086182 268.010315,119.086182 270.766571,119.086182 
	C270.766571,105.438896 271.274200,91.964378 270.579529,78.552139 
	C270.150787,70.274330 265.356934,66.085442 257.417297,64.513664 
	C251.132736,63.269543 245.357361,64.484322 239.857635,69.233658 
	C239.857635,61.024853 239.857635,53.613071 239.857635,46.184677 
	C236.747620,46.184677 234.016068,46.184677 231.313629,46.184677 
	C231.313629,70.686745 231.313629,94.907135 231.313629,119.052460 
	C234.252411,119.052460 236.864273,119.052460 240.006012,119.052460 
	C240.006012,110.337296 239.952484,101.884224 240.028290,93.432312 
	C240.067017,89.115051 239.881912,84.720886 240.612915,80.502716 
	C241.645462,74.544624 245.762589,72.304535 253.136292,72.839661 
	C259.108368,73.273064 261.654114,75.816528 262.076843,82.038048 
	C262.290863,85.188271 262.234680,88.356857 262.300720,92.511086 
M283.911774,81.437851 
	C286.336853,81.437851 288.761932,81.437851 291.024841,81.437851 
	C293.034454,73.115814 296.133362,71.068100 303.484772,72.679672 
	C309.523102,74.003395 311.369446,78.411087 309.740082,87.220848 
	C303.945923,88.119141 298.105896,88.488281 292.577423,89.998123 
	C282.424866,92.770805 277.945862,101.826111 281.436890,111.287292 
	C284.177765,118.715340 293.707581,122.040108 302.580963,118.376984 
	C305.457062,117.189667 308.000610,115.196640 310.722992,113.556023 
	C310.961029,115.503731 311.178101,117.279785 311.393341,119.041153 
	C314.133575,119.041153 316.552368,119.041153 318.990295,119.041153 
	C318.990295,105.141479 319.130676,91.521736 318.861725,77.910088 
	C318.812927,75.440002 317.580231,72.627579 316.047638,70.619110 
	C310.833282,63.785679 303.314728,63.462830 295.708771,64.629906 
	C286.349365,66.066040 282.552582,71.279915 283.911774,81.437851 
M554.271423,64.820236 
	C552.810852,64.886185 551.350281,64.952141 549.796326,65.022301 
	C549.796326,83.201164 549.796326,101.073578 549.796326,119.026207 
	C552.721741,119.026207 555.300964,119.026207 558.297119,119.026207 
	C558.297119,112.788513 558.250793,106.832611 558.309753,100.877754 
	C558.372253,94.565628 558.124512,88.212341 558.767456,81.954597 
	C559.430298,75.502037 564.489502,71.861725 571.007019,72.187065 
	C577.051941,72.488823 580.705505,76.354782 580.955261,83.042671 
	C581.141418,88.028786 581.052551,93.025658 581.061829,98.017776 
	C581.074829,104.967880 581.065125,111.918022 581.065125,119.050987 
	C584.246399,119.050987 586.966187,119.050987 589.917053,119.050987 
	C589.917053,105.677307 590.332947,92.547882 589.782959,79.459045 
	C589.357849,69.341965 583.432129,64.407219 573.263184,64.053146 
	C567.582153,63.855339 562.421692,65.042870 559.100464,68.970856 
	C557.641663,67.450958 556.381042,66.137589 554.271423,64.820236 
M349.732483,112.817848 
	C348.431366,112.256264 347.002441,111.880333 345.857452,111.092010 
	C343.861389,109.717781 340.468689,108.157898 340.398956,106.556625 
	C339.918030,95.512238 340.145844,84.436981 340.145844,73.107376 
	C343.298828,73.107376 346.058990,73.107376 348.847321,73.107376 
	C348.847321,70.283524 348.847321,67.746193 348.847321,64.839172 
	C345.754852,64.839172 343.000824,64.839172 339.801208,64.839172 
	C339.801208,61.066792 339.801208,57.670376 339.801208,54.174259 
	C336.732880,54.575958 334.130829,54.916611 331.300476,55.287151 
	C331.300476,72.888206 330.778168,90.326126 331.506561,107.711647 
	C331.909973,117.341141 339.986542,121.578377 349.739349,118.540337 
	C349.739349,116.968994 349.739349,115.316643 349.732483,112.817848 
M615.804504,73.321884 
	C622.735962,72.884750 617.878723,68.032372 619.639404,64.810730 
	C615.907410,64.810730 613.014771,64.810730 609.833557,64.810730 
	C609.833557,60.993259 609.833557,57.705132 609.833557,54.204468 
	C606.907776,54.574078 604.319519,54.901051 601.816345,55.217270 
	C601.816345,73.502525 601.291016,91.602219 602.056030,109.647209 
	C602.396912,117.686554 610.905640,121.335907 619.578369,118.639908 
	C619.578369,116.201111 619.578369,113.772820 619.578369,111.224823 
	C615.243286,111.224808 610.446716,111.356064 610.226624,105.945305 
	C609.789185,95.192223 610.097229,84.408821 610.097229,73.305435 
	C612.031067,73.305435 613.497131,73.305435 615.804504,73.321884 
z"/>
<path fill="#CACCCB" opacity="1.000000" stroke="none" 
	d="
M564.428467,166.000000 
	C565.657288,162.448608 567.939087,163.886429 570.104126,165.611420 
	C568.285645,166.000000 566.571289,166.000000 564.428467,166.000000 
z"/>
<path fill="#393939" opacity="1.000000" stroke="none" 
	d="
M630.375000,166.000000 
	C631.497620,165.607285 632.995239,165.214584 634.398926,164.835617 
	C633.870056,165.232910 633.434998,165.616455 633.000000,166.000000 
	C632.250000,166.000000 631.500000,166.000000 630.375000,166.000000 
z"/>
<path fill="#C0C0C0" opacity="1.000000" stroke="none" 
	d="
M633.500000,166.000000 
	C633.434998,165.616455 633.870056,165.232910 634.811890,164.806091 
	C635.748901,164.467514 636.179016,164.172195 636.804565,163.938446 
	C637.612244,167.085007 635.268921,165.736679 633.500000,166.000000 
z"/>
<path fill="#393939" opacity="1.000000" stroke="none" 
	d="
M112.049812,7.173491 
	C128.660172,7.173491 145.270538,7.173491 162.129913,7.173491 
	C162.129913,57.710751 162.129913,108.111801 162.129913,158.784973 
	C110.532440,158.784973 58.977600,158.784973 7.197666,158.784973 
	C7.197666,108.247635 7.197666,57.846596 7.197666,6.882688 
	C29.879423,6.882688 52.468956,6.882688 75.533012,7.404576 
	C76.359543,11.704443 76.563019,15.503753 77.101753,19.254915 
	C77.751923,23.782084 79.793663,27.114067 85.379105,27.098867 
	C88.821396,30.393280 91.966141,33.539955 96.220711,37.797127 
	C92.596664,40.482498 89.174767,43.018078 85.501503,45.739918 
	C87.834335,47.781567 89.019516,48.818817 89.693512,49.408680 
	C94.319962,44.985764 98.610573,40.883911 103.672409,36.044762 
	C99.065666,31.751585 94.469627,27.468384 89.892586,22.745522 
	C89.283119,17.230467 88.654655,12.155073 88.026184,7.079679 
	C88.771500,7.011138 89.516815,6.942597 90.659103,7.379277 
	C91.418861,12.201646 91.781631,16.518793 92.144409,20.835941 
	C92.675346,21.084408 93.206284,21.332872 93.737221,21.581339 
	C99.841423,16.778723 105.945618,11.976108 112.049812,7.173491 
M77.420425,108.919998 
	C93.671867,92.738594 109.923317,76.557190 126.023705,60.526196 
	C119.182396,53.615044 112.696442,47.062862 106.640678,40.945263 
	C84.789413,62.819622 62.837219,84.795021 41.211914,106.443184 
	C47.359009,112.647377 53.781384,119.129410 60.742073,126.154762 
	C66.100624,120.612000 71.510551,115.016098 77.420425,108.919998 
M82.765724,48.856506 
	C77.783531,43.556885 72.801338,38.257267 67.562386,32.684528 
	C50.921429,49.348053 35.139023,65.094086 19.504448,80.985558 
	C18.756435,81.745857 18.667887,84.400337 19.366449,85.141785 
	C25.047157,91.171234 30.989006,96.954651 36.599827,102.561638 
	C53.385643,85.825287 69.834160,69.425240 86.462029,52.846367 
	C85.499107,51.811138 84.378998,50.606907 82.765724,48.856506 
M92.036125,125.478203 
	C94.251495,128.112381 96.466866,130.746552 98.869629,133.603561 
	C115.342545,117.086708 130.883148,101.598312 146.222366,85.912994 
	C147.240997,84.871391 147.608810,81.601830 146.784805,80.609123 
	C141.599228,74.361977 135.990433,68.466125 130.715790,62.667744 
	C113.160820,80.268288 96.766365,96.705292 79.821800,113.693832 
	C83.440071,117.177864 87.488068,121.075676 92.036125,125.478203 
M92.928268,139.414566 
	C94.021523,138.230865 95.114777,137.047180 96.166901,135.908020 
	C94.831841,134.380737 93.767487,133.163147 91.689629,130.786118 
	C88.609848,134.461914 85.877403,137.723145 82.837585,141.351242 
	C78.144081,136.436829 73.790192,131.878021 68.920288,126.778893 
	C67.648323,128.162323 66.571762,129.333221 64.767799,131.295258 
	C68.014824,134.242981 71.067039,136.791061 73.864120,139.593750 
	C83.242821,148.991226 83.207954,149.026031 92.928268,139.414566 
z"/>
<path fill="#3E3E3E" opacity="1.000000" stroke="none" 
	d="
M475.991058,99.999893 
	C475.972900,93.836143 476.098785,88.166908 475.897125,82.509354 
	C475.685699,76.577103 472.716736,73.429161 467.241608,72.826515 
	C460.112915,72.041862 455.339020,74.611702 454.221313,80.614349 
	C453.408844,84.977707 453.449554,89.526779 453.386078,93.996964 
	C453.268280,102.295151 453.352356,110.596199 453.352356,119.088768 
	C450.183563,119.088768 447.450867,119.088768 444.282654,119.088768 
	C444.282654,108.699127 444.282715,98.580040 444.282562,88.460953 
	C444.282562,86.961967 444.328827,85.461243 444.273376,83.964294 
	C443.947052,75.156761 441.203491,72.174194 433.604340,72.321884 
	C425.688110,72.475739 421.889648,76.351097 421.840424,84.567955 
	C421.772705,95.874290 421.823486,107.181335 421.823486,118.902588 
	C418.871674,118.902588 416.158081,118.902588 413.121857,118.902588 
	C413.121857,101.122055 413.121857,83.223755 413.121857,65.068085 
	C415.322418,65.068085 417.420624,65.068085 419.781555,65.068085 
	C420.216797,66.482605 420.684937,68.003883 421.164581,69.562637 
	C431.425903,61.885197 441.214081,62.123722 450.046387,70.371025 
	C454.728607,65.554375 460.706177,64.027527 467.233734,64.057610 
	C478.420227,64.109169 484.442383,69.450233 484.775787,80.632202 
	C485.152802,93.278664 484.862732,105.945015 484.862732,118.981018 
	C482.027405,118.981018 479.166504,118.981018 475.991119,118.981018 
	C475.991119,112.783325 475.991119,106.641441 475.991058,99.999893 
z"/>
<path fill="#404040" opacity="1.000000" stroke="none" 
	d="
M209.011353,47.722328 
	C218.656067,50.467278 222.356125,56.394993 221.435760,67.412689 
	C218.884781,67.412689 216.302994,67.412689 213.402100,67.412689 
	C213.222839,66.083038 213.090271,64.808861 212.868713,63.550350 
	C212.697098,62.575600 212.591934,61.529457 212.152557,60.670986 
	C208.658325,53.844040 202.212112,54.981445 196.372009,55.250214 
	C189.672180,55.558548 186.268936,57.840282 186.094162,63.182922 
	C185.654312,76.629684 185.735336,90.111336 186.253418,103.554115 
	C186.340256,105.807137 189.402100,109.459480 191.538330,109.822456 
	C196.940994,110.740410 202.699646,110.754410 208.101578,109.850693 
	C210.038498,109.526657 211.660156,105.676453 212.853714,103.163879 
	C213.574738,101.646065 213.196487,99.606041 213.332626,97.481354 
	C216.078735,97.481354 218.663818,97.481354 221.271866,97.481354 
	C223.736923,110.456131 218.337982,118.163841 205.335495,119.380074 
	C200.416229,119.840218 195.340683,119.615852 190.431458,118.975029 
	C182.229965,117.904472 177.330780,113.086594 177.039780,104.801140 
	C176.555710,91.017647 176.444077,77.184845 177.050934,63.411366 
	C177.491806,53.405304 182.752090,48.328388 192.702164,47.280663 
	C197.931229,46.730045 203.296387,47.471642 209.011353,47.722328 
z"/>
<path fill="#3F3F3F" opacity="1.000000" stroke="none" 
	d="
M507.080139,107.610703 
	C514.533386,114.559128 525.749939,112.364731 528.626770,103.632690 
	C531.184631,103.632690 533.805664,103.632690 536.407837,103.632690 
	C537.153137,110.954964 533.654663,117.142082 526.815918,118.342712 
	C520.736450,119.410049 514.296265,119.504761 508.153748,118.808159 
	C502.709808,118.190781 498.327454,114.200348 498.013367,108.645287 
	C497.408264,97.944351 497.585052,87.166206 498.086029,76.450394 
	C498.317749,71.494797 501.927124,68.193970 506.587738,66.370781 
	C513.741577,63.572285 521.215210,63.317680 527.843323,66.823456 
	C531.372925,68.690353 534.865417,72.870308 535.906067,76.680481 
	C537.513367,82.565216 537.003845,89.028145 537.420288,95.697983 
	C526.472595,95.697983 516.395874,95.697983 505.356445,95.697983 
	C505.919037,99.876923 506.413818,103.552277 507.080139,107.610703 
M519.054504,72.298065 
	C507.696045,72.199326 503.783325,76.972946 506.487152,87.712646 
	C513.735168,87.712646 520.997314,87.712646 528.227600,87.712646 
	C529.491821,77.903976 527.532593,74.398178 519.054504,72.298065 
z"/>
<path fill="#3D3D3D" opacity="1.000000" stroke="none" 
	d="
M262.300690,92.014114 
	C262.234680,88.356857 262.290863,85.188271 262.076843,82.038048 
	C261.654114,75.816528 259.108368,73.273064 253.136292,72.839661 
	C245.762589,72.304535 241.645462,74.544624 240.612915,80.502716 
	C239.881912,84.720886 240.067017,89.115051 240.028290,93.432312 
	C239.952484,101.884224 240.006012,110.337296 240.006012,119.052460 
	C236.864273,119.052460 234.252411,119.052460 231.313629,119.052460 
	C231.313629,94.907135 231.313629,70.686745 231.313629,46.184677 
	C234.016068,46.184677 236.747620,46.184677 239.857635,46.184677 
	C239.857635,53.613071 239.857635,61.024853 239.857635,69.233658 
	C245.357361,64.484322 251.132736,63.269543 257.417297,64.513664 
	C265.356934,66.085442 270.150787,70.274330 270.579529,78.552139 
	C271.274200,91.964378 270.766571,105.438896 270.766571,119.086182 
	C268.010315,119.086182 265.421753,119.086182 262.300720,119.086182 
	C262.300720,110.086693 262.300720,101.298889 262.300690,92.014114 
z"/>
<path fill="#3E3F3E" opacity="1.000000" stroke="none" 
	d="
M283.544434,81.223907 
	C282.552582,71.279915 286.349365,66.066040 295.708771,64.629906 
	C303.314728,63.462830 310.833282,63.785679 316.047638,70.619110 
	C317.580231,72.627579 318.812927,75.440002 318.861725,77.910088 
	C319.130676,91.521736 318.990295,105.141479 318.990295,119.041153 
	C316.552368,119.041153 314.133575,119.041153 311.393341,119.041153 
	C311.178101,117.279785 310.961029,115.503731 310.722992,113.556023 
	C308.000610,115.196640 305.457062,117.189667 302.580963,118.376984 
	C293.707581,122.040108 284.177765,118.715340 281.436890,111.287292 
	C277.945862,101.826111 282.424866,92.770805 292.577423,89.998123 
	C298.105896,88.488281 303.945923,88.119141 309.740082,87.220848 
	C311.369446,78.411087 309.523102,74.003395 303.484772,72.679672 
	C296.133362,71.068100 293.034454,73.115814 291.024841,81.437851 
	C288.761932,81.437851 286.336853,81.437851 283.544434,81.223907 
M305.453674,95.167168 
	C301.192352,96.235588 296.536652,96.597832 292.833466,98.665771 
	C290.938232,99.724113 289.700012,104.018456 290.134644,106.506111 
	C290.454285,108.335655 293.824066,110.620018 296.089020,110.948700 
	C305.243164,112.277122 310.213379,106.562454 310.173737,95.145378 
	C308.888031,95.145378 307.599091,95.145378 305.453674,95.167168 
z"/>
<path fill="#3B3B3B" opacity="1.000000" stroke="none" 
	d="
M554.695923,64.822220 
	C556.381042,66.137589 557.641663,67.450958 559.100464,68.970856 
	C562.421692,65.042870 567.582153,63.855339 573.263184,64.053146 
	C583.432129,64.407219 589.357849,69.341965 589.782959,79.459045 
	C590.332947,92.547882 589.917053,105.677307 589.917053,119.050987 
	C586.966187,119.050987 584.246399,119.050987 581.065125,119.050987 
	C581.065125,111.918022 581.074829,104.967880 581.061829,98.017776 
	C581.052551,93.025658 581.141418,88.028786 580.955261,83.042671 
	C580.705505,76.354782 577.051941,72.488823 571.007019,72.187065 
	C564.489502,71.861725 559.430298,75.502037 558.767456,81.954597 
	C558.124512,88.212341 558.372253,94.565628 558.309753,100.877754 
	C558.250793,106.832611 558.297119,112.788513 558.297119,119.026207 
	C555.300964,119.026207 552.721741,119.026207 549.796326,119.026207 
	C549.796326,101.073578 549.796326,83.201164 549.796326,65.022301 
	C551.350281,64.952141 552.810852,64.886185 554.695923,64.822220 
z"/>
<path fill="#3C3C3C" opacity="1.000000" stroke="none" 
	d="
M395.103943,65.276840 
	C396.258789,65.219795 397.413635,65.162766 398.884949,65.090103 
	C398.884949,83.132797 398.884949,101.020668 398.884949,119.097504 
	C396.383179,119.097504 394.110352,119.097504 391.435364,119.097504 
	C391.223419,117.587029 391.023956,116.165398 390.823853,114.736816 
	C390.517212,114.747665 390.087219,114.639595 389.923035,114.801353 
	C383.177094,121.447899 375.197205,121.260956 367.271820,118.093460 
	C359.996429,115.185715 359.071289,108.306763 358.869080,101.438988 
	C358.815186,99.610001 358.901215,97.776886 359.348572,95.433060 
	C362.369781,93.488510 364.965393,92.056564 367.561005,90.624619 
	C367.649384,94.099777 367.649445,97.579903 367.844574,101.049065 
	C368.248657,108.231888 371.670166,111.797874 378.106262,111.906876 
	C385.146545,112.026123 389.908661,107.923683 390.154266,100.904526 
	C390.455383,92.298981 390.308960,83.677780 390.756531,74.499466 
	C392.472717,71.049339 393.788330,68.163086 395.103943,65.276840 
z"/>
<path fill="#404040" opacity="1.000000" stroke="none" 
	d="
M349.735901,113.241074 
	C349.739349,115.316643 349.739349,116.968994 349.739349,118.540337 
	C339.986542,121.578377 331.909973,117.341141 331.506561,107.711647 
	C330.778168,90.326126 331.300476,72.888206 331.300476,55.287151 
	C334.130829,54.916611 336.732880,54.575958 339.801208,54.174259 
	C339.801208,57.670376 339.801208,61.066792 339.801208,64.839172 
	C343.000824,64.839172 345.754852,64.839172 348.847321,64.839172 
	C348.847321,67.746193 348.847321,70.283524 348.847321,73.107376 
	C346.058990,73.107376 343.298828,73.107376 340.145844,73.107376 
	C340.145844,84.436981 339.918030,95.512238 340.398956,106.556625 
	C340.468689,108.157898 343.861389,109.717781 345.857452,111.092010 
	C347.002441,111.880333 348.431366,112.256264 349.735901,113.241074 
z"/>
<path fill="#3D3D3D" opacity="1.000000" stroke="none" 
	d="
M615.383789,73.313660 
	C613.497131,73.305435 612.031067,73.305435 610.097229,73.305435 
	C610.097229,84.408821 609.789185,95.192223 610.226624,105.945305 
	C610.446716,111.356064 615.243286,111.224808 619.578369,111.224823 
	C619.578369,113.772820 619.578369,116.201111 619.578369,118.639908 
	C610.905640,121.335907 602.396912,117.686554 602.056030,109.647209 
	C601.291016,91.602219 601.816345,73.502525 601.816345,55.217270 
	C604.319519,54.901051 606.907776,54.574078 609.833557,54.204468 
	C609.833557,57.705132 609.833557,60.993259 609.833557,64.810730 
	C613.014771,64.810730 615.907410,64.810730 619.639404,64.810730 
	C617.878723,68.032372 622.735962,72.884750 615.383789,73.313660 
z"/>
<path fill="#646464" opacity="1.000000" stroke="none" 
	d="
M87.569847,6.995658 
	C88.654655,12.155073 89.283119,17.230467 89.586678,22.603367 
	C88.206688,21.281601 87.151611,19.662329 85.859909,17.679911 
	C83.675827,20.226427 82.667290,21.402317 81.552246,22.702400 
	C82.841988,24.255043 83.961769,25.603086 85.081558,26.951128 
	C79.793663,27.114067 77.751923,23.782084 77.101753,19.254915 
	C76.563019,15.503753 76.359543,11.704443 75.991638,7.500099 
	C79.688332,7.019701 83.400917,6.965670 87.569847,6.995658 
z"/>
<path fill="#3B3B3B" opacity="1.000000" stroke="none" 
	d="
M367.343872,71.180237 
	C367.442078,75.433243 367.540283,79.686249 367.242737,84.483871 
	C364.218658,86.693771 361.590302,88.359047 358.961975,90.024330 
	C358.927765,82.325890 358.893555,74.627434 359.135254,66.364906 
	C359.666809,65.630241 359.879089,65.416580 360.048035,65.159851 
	C361.081329,65.136436 362.114655,65.113029 363.589630,65.482086 
	C365.135529,67.643112 366.239716,69.411674 367.343872,71.180237 
z"/>
<path fill="#646464" opacity="1.000000" stroke="none" 
	d="
M111.591972,7.050102 
	C105.945618,11.976108 99.841423,16.778723 93.737221,21.581339 
	C93.206284,21.332872 92.675346,21.084408 92.144409,20.835941 
	C91.781631,16.518793 91.418861,12.201646 91.031845,7.431505 
	C97.716446,6.961246 104.425285,6.943979 111.591972,7.050102 
z"/>
<path fill="#757575" opacity="1.000000" stroke="none" 
	d="
M358.866302,90.435486 
	C361.590302,88.359047 364.218658,86.693771 367.150024,84.927551 
	C367.557739,86.532677 367.662445,88.238754 367.664062,90.284729 
	C364.965393,92.056564 362.369781,93.488510 359.427155,94.977829 
	C358.976990,93.639023 358.873810,92.242836 358.866302,90.435486 
z"/>
<path fill="#757575" opacity="1.000000" stroke="none" 
	d="
M394.680603,65.173370 
	C393.788330,68.163086 392.472717,71.049339 390.859253,74.053284 
	C390.438873,72.419662 390.416504,70.654243 390.172424,68.920052 
	C389.709167,65.628906 391.184814,64.537704 394.680603,65.173370 
z"/>
<path fill="#757575" opacity="1.000000" stroke="none" 
	d="
M367.509338,70.774338 
	C366.239716,69.411674 365.135529,67.643112 363.971588,65.549591 
	C369.097107,64.063568 367.681366,67.731453 367.509338,70.774338 
z"/>
<path fill="#757575" opacity="1.000000" stroke="none" 
	d="
M359.757874,65.101456 
	C359.879089,65.416580 359.666809,65.630241 359.207397,65.901108 
	C359.158295,65.681938 359.313019,65.362503 359.757874,65.101456 
z"/>
<path fill="#F7F8F8" opacity="1.000000" stroke="none" 
	d="
M77.170456,109.170105 
	C71.510551,115.016098 66.100624,120.612000 60.742073,126.154762 
	C53.781384,119.129410 47.359009,112.647377 41.211914,106.443184 
	C62.837219,84.795021 84.789413,62.819622 106.640678,40.945263 
	C112.696442,47.062862 119.182396,53.615044 126.023705,60.526196 
	C109.923317,76.557190 93.671867,92.738594 77.170456,109.170105 
M61.175495,92.675270 
	C56.682529,97.028191 52.189564,101.381119 48.085663,105.357101 
	C52.619549,109.920158 56.468758,113.794128 59.990047,117.338074 
	C79.141151,98.235779 98.431953,78.994125 117.553795,59.921021 
	C113.780251,56.180420 109.832741,52.267365 105.634216,48.105492 
	C91.062897,62.714203 76.369652,77.445145 61.175495,92.675270 
z"/>
<path fill="#F4F6F6" opacity="1.000000" stroke="none" 
	d="
M83.012299,49.129593 
	C84.378998,50.606907 85.499107,51.811138 86.462029,52.846367 
	C69.834160,69.425240 53.385643,85.825287 36.599827,102.561638 
	C30.989006,96.954651 25.047157,91.171234 19.366449,85.141785 
	C18.667887,84.400337 18.756435,81.745857 19.504448,80.985558 
	C35.139023,65.094086 50.921429,49.348053 67.562386,32.684528 
	C72.801338,38.257267 77.783531,43.556885 83.012299,49.129593 
M31.597649,76.098030 
	C29.285629,78.190712 26.973610,80.283401 24.982721,82.085419 
	C29.536741,86.741783 33.442913,90.735748 37.366089,94.747093 
	C51.123783,80.961555 64.869217,67.188301 78.445869,53.584171 
	C74.400589,49.584885 70.335846,45.566353 66.130219,41.408539 
	C54.875633,52.709518 43.482689,64.149429 31.597649,76.098030 
z"/>
<path fill="#F4F6F6" opacity="1.000000" stroke="none" 
	d="
M91.786095,125.225845 
	C87.488068,121.075676 83.440071,117.177864 79.821800,113.693832 
	C96.766365,96.705292 113.160820,80.268288 130.715790,62.667744 
	C135.990433,68.466125 141.599228,74.361977 146.784805,80.609123 
	C147.608810,81.601830 147.240997,84.871391 146.222366,85.912994 
	C130.883148,101.598312 115.342545,117.086708 98.869629,133.603561 
	C96.466866,130.746552 94.251495,128.112381 91.786095,125.225845 
M126.164642,73.671555 
	C113.207718,86.543388 100.250793,99.415222 87.231804,112.348724 
	C91.621727,116.821838 95.535637,120.809914 98.848999,124.186058 
	C112.929596,110.204041 126.814163,96.416672 140.744308,82.584061 
	C137.032043,78.982742 133.104858,75.172943 128.987350,71.178490 
	C128.386292,71.696274 127.525650,72.437683 126.164642,73.671555 
z"/>
<path fill="#F3F3F3" opacity="1.000000" stroke="none" 
	d="
M85.379105,27.098867 
	C83.961769,25.603086 82.841988,24.255043 81.552246,22.702400 
	C82.667290,21.402317 83.675827,20.226427 85.859909,17.679911 
	C87.151611,19.662329 88.206688,21.281601 89.567680,23.043028 
	C94.469627,27.468384 99.065666,31.751585 103.672409,36.044762 
	C98.610573,40.883911 94.319962,44.985764 89.693512,49.408680 
	C89.019516,48.818817 87.834335,47.781567 85.501503,45.739918 
	C89.174767,43.018078 92.596664,40.482498 96.220711,37.797127 
	C91.966141,33.539955 88.821396,30.393280 85.379105,27.098867 
z"/>
<path fill="#F3F3F3" opacity="1.000000" stroke="none" 
	d="
M92.685013,139.670486 
	C83.207954,149.026031 83.242821,148.991226 73.864120,139.593750 
	C71.067039,136.791061 68.014824,134.242981 64.767799,131.295258 
	C66.571762,129.333221 67.648323,128.162323 68.920288,126.778893 
	C73.790192,131.878021 78.144081,136.436829 82.837585,141.351242 
	C85.877403,137.723145 88.609848,134.461914 91.689629,130.786118 
	C93.767487,133.163147 94.831841,134.380737 96.166901,135.908020 
	C95.114777,137.047180 94.021523,138.230865 92.685013,139.670486 
z"/>
<path fill="#F7F8F8" opacity="1.000000" stroke="none" 
	d="
M519.454407,72.372406 
	C527.532593,74.398178 529.491821,77.903976 528.227600,87.712646 
	C520.997314,87.712646 513.735168,87.712646 506.487152,87.712646 
	C503.783325,76.972946 507.696045,72.199326 519.454407,72.372406 
z"/>
<path fill="#F7F8F8" opacity="1.000000" stroke="none" 
	d="
M305.881927,95.156273 
	C307.599091,95.145378 308.888031,95.145378 310.173737,95.145378 
	C310.213379,106.562454 305.243164,112.277122 296.089020,110.948700 
	C293.824066,110.620018 290.454285,108.335655 290.134644,106.506111 
	C289.700012,104.018456 290.938232,99.724113 292.833466,98.665771 
	C296.536652,96.597832 301.192352,96.235588 305.881927,95.156273 
z"/>
<path fill="#3D3D3D" opacity="1.000000" stroke="none" 
	d="
M61.425953,92.425674 
	C76.369652,77.445145 91.062897,62.714203 105.634216,48.105492 
	C109.832741,52.267365 113.780251,56.180420 117.553795,59.921021 
	C98.431953,78.994125 79.141151,98.235779 59.990047,117.338074 
	C56.468758,113.794128 52.619549,109.920158 48.085663,105.357101 
	C52.189564,101.381119 56.682529,97.028191 61.425953,92.425674 
z"/>
<path fill="#3B3C3C" opacity="1.000000" stroke="none" 
	d="
M31.843697,75.843681 
	C43.482689,64.149429 54.875633,52.709518 66.130219,41.408539 
	C70.335846,45.566353 74.400589,49.584885 78.445869,53.584171 
	C64.869217,67.188301 51.123783,80.961555 37.366089,94.747093 
	C33.442913,90.735748 29.536741,86.741783 24.982721,82.085419 
	C26.973610,80.283401 29.285629,78.190712 31.843697,75.843681 
z"/>
<path fill="#3D3D3D" opacity="1.000000" stroke="none" 
	d="
M126.414825,73.425323 
	C127.525650,72.437683 128.386292,71.696274 128.987350,71.178490 
	C133.104858,75.172943 137.032043,78.982742 140.744308,82.584061 
	C126.814163,96.416672 112.929596,110.204041 98.848999,124.186058 
	C95.535637,120.809914 91.621727,116.821838 87.231804,112.348724 
	C100.250793,99.415222 113.207718,86.543388 126.414825,73.425323 
z"/>
</svg>